<?xml version='1.0' encoding='iso-8859-1'?>
<svg version="1.1" xmlns="http://www.w3.org/2000/svg"  viewBox="0 0 350 350" xmlns:xlink="http://www.w3.org/1999/xlink" enable-background="new 0 0 350 350"> 
  <g>
    <path fill="#f13f3f" d="m295.059,170.899c2.302-1.281 3.86-3.735 3.86-6.556v-56.776c0-4.142-3.357-7.5-7.5-7.5h-18.746v-44.063c0-4.142-3.357-7.5-7.5-7.5h-3.707l-7.456-42.306c-0.632-3.584-3.746-6.198-7.386-6.198h-23.246c-3.64,0-6.754,2.614-7.386,6.198l-7.456,42.306h-3.706c-4.142,0-7.5,3.358-7.5,7.5v44.064h-18.747c-4.142,0-7.5,3.358-7.5,7.5v56.776c0,2.821 1.559,5.275 3.861,6.556-21.875,18.707-34.798,46.123-34.798,75.799v175.64c0,26.282 21.382,47.665 47.665,47.665h94.381c26.282,0 47.665-21.382 47.665-47.665v-175.64c0-29.677-12.923-57.092-34.798-75.8zm19.798,251.439c0,18.011-14.653,32.665-32.665,32.665h-94.381c-18.011,0-32.665-14.653-32.665-32.665v-175.64c0-31.519 17.157-60.035 44.885-74.855h69.942c27.727,14.82 44.884,43.336 44.884,74.855v175.64zm-74.527-407.338l5.906,33.504h-22.469l5.905-33.504h10.658zm-28,48.504h2.475c0.066,0 42.868,0 42.868,0v36.564h-45.343v-36.564zm-26.247,51.564h22.612v19.276c0,4.142 3.358,7.5 7.5,7.5s7.5-3.358 7.5-7.5v-19.276h22.612v19.276c0,4.142 3.357,7.5 7.5,7.5s7.5-3.358 7.5-7.5v-19.276h22.611v41.776h-97.836v-41.776z"/>
    <path fill="#f13f3f" d="m177.647,254.199h114.71c4.141,0 7.497-3.356 7.5-7.496 0-4.146-3.357-7.504-7.5-7.504h-114.71c-4.142,0-7.5,3.358-7.5,7.5 0.002,4.144 3.359,7.5 7.5,7.5z"/>
    <path fill="#f13f3f" d="m177.646,399.838h114.71c4.141,0 7.497-3.355 7.5-7.495 0-4.147-3.357-7.505-7.5-7.505h-114.71c-4.142,0-7.5,3.358-7.5,7.5 0.003,4.145 3.36,7.5 7.5,7.5z"/>
    <path fill="#f13f3f" d="m241.009,272.209c-1.416-1.895-3.643-3.011-6.008-3.011-2.366,0-4.592,1.116-6.008,3.011l-25.739,34.448c-5.115,6.867-7.818,15.032-7.818,23.615 0,21.817 17.749,39.566 39.565,39.566 21.817,0 39.566-17.749 39.566-39.566 0-8.583-2.703-16.748-7.825-23.624l-25.733-34.439zm-30.573,58.063c0-5.329 1.676-10.397 4.841-14.646l19.724-26.398 19.719,26.389c3.171,4.258 4.848,9.326 4.848,14.655 0,13.546-11.021,24.566-24.566,24.566-13.546,1.13687e-13-24.566-11.02-24.566-24.566z"/>
  </g>
</svg>
